<?xml version="1.0" encoding="utf-8"?>
<!-- Generator: Adobe Illustrator 21.0.0, SVG Export Plug-In . SVG Version: 6.00 Build 0)  -->
<svg version="1.1" id="Layer_1" xmlns="http://www.w3.org/2000/svg" xmlns:xlink="http://www.w3.org/1999/xlink" x="0px" y="0px"
	 viewBox="0 0 720 720" style="enable-background:new 0 0 720 720;" xml:space="preserve">
<style type="text/css">
	.st0{fill:#E63946;}
	.st1{fill:none;stroke:#E63946;stroke-miterlimit:10;}
	.st2{fill:none;stroke:#E63946;stroke-width:2;stroke-linecap:round;stroke-linejoin:round;stroke-miterlimit:10;}
	.st3{fill:#E63946;stroke:#E63946;stroke-width:2;stroke-miterlimit:10;}
</style>
<g>
	<polygon class="st0" points="125,367.9 125.2,368 125,368 	"/>
</g>
<g>
	<g>
		<path class="st0" d="M542.1,356L513,376H120.1c-0.5-0.6-0.8-1.2-0.9-1.9l26.3-18.1H542.1z"/>
	</g>
	<path class="st0" d="M240,300.7v70.1c0,2.8-2.3,5.1-5.1,5.1H120.1c-0.5-0.6-0.8-1.2-0.9-1.9l26.3-18.1l14.7-10.1l71.8-49.4
		C235.4,294.2,240,296.6,240,300.7z"/>
	<path class="st0" d="M167.5,369.8c-8.9,2.8-16.4,4.8-22.6,6.2c-0.1,0-0.2,0-0.3,0h-24.7c-0.5,0-1-0.2-1.2-0.7c0,0,0,0,0,0
		c-0.3-0.6-0.1-1.3,0.5-1.7l25.4-16.7l13.2-8.7c0.8-0.5,1.8-0.2,2.2,0.6l3.6,8.1l4.9,11C168.7,368.7,168.3,369.5,167.5,369.8z"/>
	<polygon class="st0" points="601,338 601,338.1 598.1,340.2 486.1,420.8 484.8,419 594.4,340.2 597.4,338 	"/>
	<polyline class="st2" points="213,374 239.4,355.5 245.8,351.1 260,341.1 263,339 	"/>
	<line class="st3" x1="263" y1="339" x2="598" y2="339"/>
</g>
</svg>
