<?xml version="1.0" encoding="utf-8"?>
<!-- Generator: Adobe Illustrator 21.0.0, SVG Export Plug-In . SVG Version: 6.00 Build 0)  -->
<svg version="1.1" id="Layer_1" xmlns="http://www.w3.org/2000/svg" xmlns:xlink="http://www.w3.org/1999/xlink" x="0px" y="0px"
	 viewBox="0 0 40 10" style="enable-background:new 0 0 40 10;" xml:space="preserve">
<style type="text/css">
	.st0{fill:#E63946;}
	.st1{fill:none;}
</style>
<g>
	<polygon class="st0" points="32.1,5.5 8.6,5.5 8.3,5.5 7.9,5.5 2.7,5.5 2.7,6.5 6.6,6.5 7.3,6.5 8.3,6.5 30.8,6.5 	"/>
	<polygon class="st0" points="39.2,3.4 39.2,3.1 38.8,3.1 37.2,3.1 11.6,3.1 10.9,3.1 10.4,3.6 11.1,3.6 38.3,3.6 39,3.6 	"/>
	<polygon class="st0" points="8.3,1 8.3,6.5 1.2,6.5 	"/>
	<line class="st1" x1="32.1" y1="5.5" x2="30.8" y2="6.5"/>
	<polygon class="st0" points="10.9,3.1 10.4,3.6 8.3,5.2 7.9,5.5 6.6,6.5 7.3,6.5 8.3,5.7 8.6,5.5 11.1,3.6 11.6,3.1 	"/>
	<polygon class="st0" points="39.2,3.4 39.5,3.1 39.2,3.1 38.8,3.1 38.3,3.6 32,8.4 32,9 39,3.6 	"/>
</g>
</svg>
